<?xml version="1.0" encoding="UTF-8"?>
<svg width="24px" height="24px" viewBox="0 0 24 24" version="1.1" xmlns="http://www.w3.org/2000/svg">
    <g stroke="none" stroke-width="1" fill="none" fill-rule="evenodd">
        <path d="M21,8.11682813 C18.9624023,9.14892578 11.4561523,12.4033203 5.13085938,14.7236328 C4.53710938,14.9291992 3.62695313,15.2324219 3,15.2324219 C2.37304688,15.2324219 1.91894531,14.9291992 1.67871094,14.3354492 C1.43847656,13.7416992 1.55859375,12.7275391 2.27441406,11.3251953 C2.99023438,9.92285156 4.0078125,8.32128906 5.32617188,6.52050781 L3.62695313,7.20117188 C2.63085938,8.71582031 1.79882813,10.1181641 1.13476563,11.4082031 C0.35,12.9228516 0.0234375,14.1936523 0.171875,15.2324219 C0.32128906,16.2697266 0.818359375,17.0668945 1.67871094,17.6240234 C2.29785156,18.0522461 2.98876953,18.2578125 3.75,18.2578125 C4.51220703,18.2578125 5.32617188,18.1005859 6.19335938,17.7861328 C8.76855469,16.8131836 13.0229492,14.8896484 18.9570313,12.015625 L21,8.11682813 Z" fill="#FFFFFF"></path>
    </g>
</svg> 