<?xml version="1.0" encoding="UTF-8"?>
<svg width="1000px" height="324px" viewBox="0 0 1000 324" version="1.1" xmlns="http://www.w3.org/2000/svg">
    <g stroke="none" stroke-width="1" fill="none" fill-rule="evenodd">
        <g fill="#FFFFFF">
            <path d="M433.4,11.5 L352.7,312.5 L283.8,312.5 L203.1,52.6 C199.3,37.9 195.9,31.5 184.4,25.1 C165.6,14.9 134.8,5.8 107.4,0 L108.7,11.5 L220.6,11.5 L278.2,238.9 L347.1,11.5 L433.4,11.5 Z M714.6,216.9 C715.2,145.7 620.7,142.1 622,101.2 C622.4,87.2 635.5,72 666.3,68.1 C681.7,66.1 725.5,64.6 774.3,89.7 L790.1,21.9 C766.6,12.8 736.2,4 698.4,4 C616.5,4 558.7,47.3 558,109.4 C557.2,156.3 598.9,182.3 630.2,197.5 C662.6,213.1 673.6,223.2 673.4,237.3 C673,259.7 646.4,269.4 621.5,269.9 C576.9,270.8 550.6,258.1 529.2,248.5 L512.9,318.6 C534.3,328.2 575.2,336.5 617.9,336.9 C705.4,336.9 761.7,294.2 762,227.8 L714.6,216.9 Z M934.8,312.5 L1000,312.5 L934.8,11.5 L873.3,11.5 C853.2,11.5 837.5,22.1 830.7,40.1 L708.7,312.5 L777.6,312.5 L795.2,264.7 L910.2,264.7 L934.8,312.5 Z M821.7,204.8 L873.3,66.1 L906.4,204.8 L821.7,204.8 Z M535.9,11.5 L483.9,312.5 L418.3,312.5 L470.3,11.5 L535.9,11.5 Z"></path>
        </g>
    </g>
</svg> 